<?xml version="1.0" encoding="UTF-8"?>
<svg xmlns="http://www.w3.org/2000/svg" viewBox="0 0 24 24" width="24" height="24">
  <defs>
    <style>
      .primary { fill: #10b981; }
      .secondary { fill: #059669; opacity: 0.3; }
    </style>
  </defs>
  <!-- Background circle -->
  <circle cx="12" cy="12" r="10" class="primary"/>
  <!-- Check mark -->
  <path d="M12 2C6.48 2 2 6.48 2 12s4.48 10 10 10 10-4.48 10-10S17.52 2 12 2zm-1 15.59L6.41 13l1.41-1.41L11 14.17l4.59-4.58L17 11l-6 6.59z" class="secondary"/>
  <path d="M12 4c-4.41 0-8 3.59-8 8s3.59 8 8 8 8-3.59 8-8-3.59-8-8-8zm-1 13.59L6.41 13l1.41-1.41L11 14.17l4.59-4.58L17 11l-6 6.59z" fill="white"/>
</svg>
